<?xml version="1.0" encoding="utf-8"?>
<!DOCTYPE svg PUBLIC "-//W3C//DTD SVG 20010904//EN" "http://www.w3.org/TR/2001/REC-SVG-20010904/DTD/svg10.dtd">
<svg version="1.0" xmlns="http://www.w3.org/2000/svg" width="280pt" height="280pt" viewBox="0 0 280 280" style="" preserveAspectRatio="xMidYMid meet">
<g fill="#1C78C0FF" stroke="#1C78C0FF">
<path d="M 109.261 85.327 C 93.179 94.222 80.017 101.730 80.011 102.011 C 80.005 102.293 93.460 110.282 109.910 119.766 L 139.820 137.008 169.410 119.918 C 185.685 110.518 199.000 102.464 199.000 102.020 C 199.000 101.112 140.838 68.957 139.413 69.077 C 138.911 69.119 125.342 76.432 109.261 85.327 "/></g>
<g fill="#1C78C0FF" stroke="#1C78C0FF">
<path d="M 75.000 142.410 L 75.000 174.821 104.306 190.910 C 120.424 199.760 134.149 207.000 134.806 207.000 C 135.706 207.000 135.996 199.421 135.985 176.250 C 135.976 159.338 135.639 145.007 135.235 144.405 C 134.384 143.137 77.227 110.000 75.891 110.000 C 75.388 110.000 75.000 124.105 75.000 142.410 "/></g>
<g fill="#1C78C0FF" stroke="#1C78C0FF">
<path d="M 173.500 126.888 L 144.500 143.687 144.236 175.344 C 144.027 200.353 144.237 206.988 145.236 206.942 C 145.931 206.910 159.325 199.802 175.000 191.145 L 203.500 175.406 203.764 142.703 C 203.909 124.716 203.684 110.020 203.264 110.045 C 202.844 110.069 189.450 117.649 173.500 126.888 "/></g>
<g fill="#8ED5FAFF" stroke="#8ED5FAFF">
<path d="M 132.203 21.714 C 131.175 22.696 129.711 23.645 128.950 23.822 C 126.138 24.477 115.000 31.208 115.000 32.253 C 115.000 32.847 114.718 33.051 114.373 32.707 C 113.485 31.818 108.000 34.818 108.000 36.192 C 108.000 36.820 107.718 37.051 107.373 36.707 C 106.485 35.818 101.000 38.818 101.000 40.192 C 101.000 40.820 100.719 41.053 100.376 40.710 C 99.482 39.816 92.000 43.815 92.000 45.187 C 92.000 45.817 91.718 46.051 91.373 45.707 C 90.485 44.818 85.000 47.818 85.000 49.192 C 85.000 49.820 84.718 50.051 84.373 49.707 C 83.485 48.818 78.000 51.818 78.000 53.192 C 78.000 53.820 77.719 54.053 77.376 53.710 C 76.482 52.816 69.000 56.815 69.000 58.187 C 69.000 58.817 68.718 59.051 68.373 58.707 C 67.485 57.818 62.000 60.818 62.000 62.192 C 62.000 62.820 61.718 63.051 61.373 62.707 C 60.485 61.818 55.000 64.818 55.000 66.192 C 55.000 66.820 54.719 67.053 54.376 66.710 C 53.482 65.816 46.000 69.815 46.000 71.187 C 46.000 71.817 45.718 72.051 45.373 71.707 C 44.525 70.858 39.000 73.787 39.000 75.085 C 39.000 75.653 38.581 75.859 38.069 75.543 C 37.557 75.226 36.875 75.394 36.552 75.915 C 35.855 77.044 39.957 80.144 41.163 79.399 C 41.623 79.115 42.000 79.262 42.000 79.725 C 42.000 80.927 47.591 84.076 48.360 83.307 C 48.712 82.955 49.000 83.150 49.000 83.741 C 49.000 84.849 65.534 94.576 66.245 93.886 C 66.464 93.674 67.430 94.288 68.393 95.250 C 70.549 97.406 71.420 97.437 73.429 95.429 C 74.293 94.564 75.000 94.143 75.000 94.493 C 75.000 94.842 76.800 94.116 79.000 92.880 C 81.200 91.643 83.000 90.190 83.000 89.649 C 83.000 89.109 83.292 88.958 83.648 89.315 C 84.497 90.163 94.000 84.985 94.000 83.674 C 94.000 83.120 94.281 82.947 94.624 83.290 C 95.518 84.184 103.000 80.185 103.000 78.813 C 103.000 78.183 103.292 77.958 103.648 78.315 C 104.497 79.163 114.000 73.985 114.000 72.674 C 114.000 72.120 114.281 71.947 114.624 72.290 C 115.518 73.184 123.000 69.185 123.000 67.813 C 123.000 67.183 123.281 66.947 123.624 67.290 C 124.388 68.055 130.680 64.911 133.750 62.230 C 135.940 60.318 136.000 59.742 136.000 40.692 C 136.000 29.215 135.601 20.872 135.036 20.523 C 134.507 20.195 133.232 20.731 132.203 21.714 "/></g>
<g fill="#8ED5FAFF" stroke="#8ED5FAFF">
<path d="M 74.000 184.833 C 74.000 185.292 73.421 185.667 72.712 185.667 C 70.741 185.667 62.000 191.048 62.000 192.262 C 62.000 192.851 61.718 193.051 61.373 192.707 C 60.485 191.818 55.000 194.818 55.000 196.192 C 55.000 196.820 54.718 197.051 54.373 196.707 C 53.525 195.858 48.000 198.787 48.000 200.085 C 48.000 200.653 47.632 200.890 47.182 200.612 C 46.109 199.949 39.077 204.206 39.108 205.500 C 39.137 206.739 43.196 208.997 44.237 208.353 C 44.657 208.094 45.000 208.262 45.000 208.725 C 45.000 209.810 50.995 213.379 51.015 212.307 C 51.024 211.863 51.361 212.013 51.765 212.640 C 52.749 214.168 65.062 221.333 66.703 221.333 C 67.416 221.333 68.000 221.611 68.000 221.951 C 68.000 222.888 73.998 226.234 74.015 225.307 C 74.024 224.863 74.361 225.013 74.765 225.640 C 75.749 227.168 88.062 234.333 89.703 234.333 C 90.416 234.333 91.000 234.611 91.000 234.951 C 91.000 235.888 96.998 239.234 97.015 238.307 C 97.024 237.863 97.361 238.013 97.765 238.640 C 98.749 240.168 111.062 247.333 112.703 247.333 C 113.416 247.333 114.000 247.611 114.000 247.951 C 114.000 248.888 119.998 252.234 120.015 251.307 C 120.024 250.863 120.361 251.013 120.765 251.640 C 121.676 253.053 133.437 260.000 134.918 260.000 C 135.659 260.000 136.000 253.407 136.000 239.057 C 136.000 218.721 135.937 218.069 133.837 216.598 C 132.647 215.765 131.297 215.316 130.837 215.601 C 130.377 215.885 130.000 215.651 130.000 215.079 C 130.000 213.783 122.476 209.858 121.624 210.710 C 121.281 211.053 121.000 210.816 121.000 210.184 C 121.000 208.814 111.519 203.815 110.622 204.712 C 110.280 205.054 110.000 204.817 110.000 204.187 C 110.000 202.815 102.518 198.816 101.624 199.710 C 101.281 200.053 101.000 199.816 101.000 199.184 C 101.000 197.814 91.519 192.815 90.622 193.712 C 90.280 194.054 90.000 193.817 90.000 193.187 C 90.000 191.815 82.518 187.816 81.624 188.710 C 81.281 189.053 81.000 188.820 81.000 188.192 C 81.000 187.565 79.672 186.365 78.050 185.526 C 74.676 183.781 74.000 183.665 74.000 184.833 "/></g>
<g fill="#8ED5FAFF" stroke="#8ED5FAFF">
<path d="M 242.250 87.134 C 239.363 88.801 237.000 90.653 237.000 91.249 C 237.000 91.845 236.718 92.051 236.373 91.707 C 235.525 90.858 230.000 93.787 230.000 95.085 C 230.000 95.653 229.653 95.904 229.229 95.641 C 228.805 95.379 225.767 96.697 222.479 98.570 C 219.190 100.443 216.950 102.015 217.500 102.064 C 218.050 102.113 217.690 102.307 216.700 102.495 C 211.947 103.399 212.000 102.955 212.000 142.060 L 212.000 178.875 216.933 181.560 C 219.647 183.037 222.234 184.277 222.683 184.317 C 223.132 184.356 224.372 185.201 225.439 186.194 C 227.266 187.896 228.509 188.393 230.250 188.118 C 230.663 188.053 231.000 188.418 231.000 188.930 C 231.000 189.653 243.201 197.097 247.236 198.836 C 247.665 199.021 247.900 173.281 247.758 141.637 L 247.500 84.103 242.250 87.134 "/></g>
<g fill="#8ED5FAFF" stroke="#8ED5FAFF">
<path d="M 144.015 40.724 L 144.000 61.949 146.873 63.434 C 148.453 64.252 150.028 64.638 150.373 64.293 C 150.718 63.949 151.000 64.120 151.000 64.674 C 151.000 65.985 160.503 71.163 161.352 70.315 C 161.708 69.958 162.000 70.109 162.000 70.649 C 162.000 71.948 169.519 76.148 170.352 75.314 C 170.709 74.958 171.000 75.120 171.000 75.674 C 171.000 76.985 180.503 82.163 181.352 81.315 C 181.708 80.958 182.000 81.109 182.000 81.649 C 182.000 82.948 189.519 87.148 190.352 86.314 C 190.709 85.958 191.000 86.120 191.000 86.674 C 191.000 87.985 200.503 93.163 201.352 92.315 C 201.708 91.958 202.000 92.121 202.000 92.676 C 202.000 93.231 203.489 94.487 205.309 95.467 C 208.408 97.136 208.820 97.145 211.809 95.599 C 213.564 94.691 215.000 93.510 215.000 92.974 C 215.000 92.438 215.377 92.113 215.837 92.250 C 217.183 92.652 234.000 82.922 234.000 81.741 C 234.000 81.150 234.282 80.949 234.627 81.293 C 235.475 82.142 241.000 79.213 241.000 77.915 C 241.000 77.347 241.419 77.141 241.931 77.457 C 242.443 77.774 243.133 77.594 243.464 77.059 C 244.151 75.947 238.584 72.750 237.627 73.707 C 237.282 74.051 237.000 73.820 237.000 73.192 C 237.000 71.818 231.515 68.818 230.627 69.707 C 230.282 70.051 230.000 69.820 230.000 69.192 C 230.000 67.818 224.515 64.818 223.627 65.707 C 223.282 66.051 223.000 65.817 223.000 65.187 C 223.000 63.815 215.518 59.816 214.624 60.710 C 214.281 61.053 214.000 60.820 214.000 60.192 C 214.000 58.818 208.515 55.818 207.627 56.707 C 207.282 57.051 207.000 56.820 207.000 56.192 C 207.000 54.818 201.515 51.818 200.627 52.707 C 200.282 53.051 200.000 52.817 200.000 52.187 C 200.000 50.815 192.518 46.816 191.624 47.710 C 191.281 48.053 191.000 47.820 191.000 47.192 C 191.000 45.818 185.515 42.818 184.627 43.707 C 184.282 44.051 184.000 43.820 184.000 43.192 C 184.000 41.818 178.515 38.818 177.627 39.707 C 177.282 40.051 177.000 39.817 177.000 39.187 C 177.000 37.815 169.518 33.816 168.624 34.710 C 168.281 35.053 168.000 34.820 168.000 34.192 C 168.000 32.818 162.515 29.818 161.627 30.707 C 161.282 31.051 161.000 30.820 161.000 30.192 C 161.000 28.818 155.515 25.818 154.627 26.707 C 154.282 27.051 154.000 26.817 154.000 26.187 C 154.000 24.928 146.009 20.485 145.985 21.730 C 145.976 22.153 145.533 21.825 145.000 21.000 C 144.357 20.005 144.025 26.652 144.015 40.724 "/></g>
<g fill="#8ED5FAFF" stroke="#8ED5FAFF">
<path d="M 199.750 186.566 C 197.138 187.926 195.000 189.555 195.000 190.186 C 195.000 190.817 194.719 191.053 194.376 190.710 C 193.482 189.816 186.000 193.815 186.000 195.187 C 186.000 195.817 185.720 196.054 185.378 195.712 C 184.481 194.815 175.000 199.814 175.000 201.184 C 175.000 201.816 174.719 202.053 174.376 201.710 C 173.524 200.858 166.000 204.783 166.000 206.079 C 166.000 206.651 165.550 206.840 165.000 206.500 C 164.450 206.160 164.000 206.434 164.000 207.108 C 164.000 207.782 163.719 208.053 163.376 207.710 C 162.482 206.816 155.000 210.815 155.000 212.187 C 155.000 212.817 154.719 213.053 154.376 212.710 C 153.524 211.858 146.000 215.783 146.000 217.079 C 146.000 217.651 145.550 217.840 145.000 217.500 C 144.345 217.095 144.000 224.323 144.000 238.441 C 144.000 251.041 144.386 260.000 144.929 260.000 C 145.439 260.000 146.645 259.213 147.607 258.250 C 148.570 257.288 149.502 256.613 149.679 256.750 C 150.506 257.394 151.802 256.833 153.811 254.961 C 155.015 253.840 156.000 253.176 156.000 253.487 C 156.000 253.797 157.350 253.353 159.000 252.500 C 160.650 251.647 162.000 250.435 162.000 249.808 C 162.000 249.180 162.291 248.958 162.648 249.314 C 163.416 250.083 171.000 245.998 171.000 244.816 C 171.000 244.367 171.338 244.053 171.750 244.118 C 173.528 244.399 174.756 243.876 176.811 241.961 C 178.015 240.840 179.000 240.176 179.000 240.487 C 179.000 240.797 180.350 240.353 182.000 239.500 C 183.650 238.647 185.000 237.435 185.000 236.808 C 185.000 236.180 185.291 235.958 185.648 236.314 C 186.416 237.083 194.000 232.998 194.000 231.816 C 194.000 231.367 194.338 231.053 194.750 231.118 C 196.528 231.399 197.756 230.876 199.811 228.961 C 201.015 227.840 202.000 227.176 202.000 227.487 C 202.000 227.797 203.350 227.353 205.000 226.500 C 206.650 225.647 208.000 224.585 208.000 224.141 C 208.000 223.697 208.584 223.333 209.297 223.333 C 210.938 223.333 223.251 216.168 224.235 214.640 C 224.639 214.013 224.976 213.849 224.985 214.276 C 225.005 215.305 231.000 212.181 231.000 211.141 C 231.000 210.697 231.613 210.333 232.362 210.333 C 234.141 210.333 241.000 206.087 241.000 204.986 C 241.000 204.098 237.055 202.457 235.750 202.802 C 235.338 202.911 235.000 202.562 235.000 202.026 C 235.000 200.770 229.452 197.881 228.627 198.707 C 228.282 199.051 228.000 198.851 228.000 198.262 C 228.000 197.048 219.259 191.667 217.288 191.667 C 216.579 191.667 216.000 191.303 216.000 190.859 C 216.000 190.415 214.650 189.353 213.000 188.500 C 211.350 187.647 210.000 187.185 210.000 187.474 C 210.000 187.763 209.100 187.100 208.000 186.000 C 205.538 183.538 205.571 183.536 199.750 186.566 "/></g>
<g fill="#8ED5FAFF" stroke="#8ED5FAFF">
<path d="M 31.000 141.500 C 31.000 179.167 31.345 199.000 32.000 199.000 C 32.550 199.000 33.000 198.550 33.000 198.000 C 33.000 197.450 33.338 197.053 33.750 197.118 C 35.526 197.399 36.754 196.877 38.792 194.979 C 39.985 193.868 41.225 193.023 41.547 193.102 C 42.781 193.404 52.000 187.820 52.000 186.771 C 52.000 186.164 52.282 185.949 52.627 186.293 C 53.475 187.142 59.000 184.213 59.000 182.915 C 59.000 182.347 59.366 182.108 59.812 182.384 C 60.259 182.660 61.841 182.088 63.328 181.113 L 66.030 179.340 66.063 141.481 L 66.095 103.621 63.810 102.398 C 62.553 101.726 61.182 101.388 60.763 101.647 C 60.343 101.906 60.000 101.653 60.000 101.085 C 60.000 99.787 54.475 96.858 53.627 97.707 C 53.282 98.051 53.000 97.820 53.000 97.192 C 53.000 96.565 51.650 95.353 50.000 94.500 C 48.350 93.647 47.000 93.185 47.000 93.474 C 47.000 93.763 46.084 93.084 44.964 91.964 C 43.843 90.843 42.493 90.195 41.964 90.523 C 41.434 90.850 41.000 90.653 41.000 90.085 C 41.000 88.891 35.015 85.556 34.970 86.724 C 34.953 87.151 34.481 86.713 33.920 85.750 C 33.359 84.788 32.473 84.000 31.950 84.000 C 31.361 84.000 31.000 105.838 31.000 141.500 "/></g>
<g fill="#8ED5FAFF" stroke="#8ED5FAFF">
<path d="M 203.723 142.456 C 203.845 160.752 204.183 175.484 204.473 175.194 C 205.305 174.362 205.087 110.172 204.250 109.654 C 203.838 109.400 203.600 124.160 203.723 142.456 "/></g>
</svg>
